<?xml version="1.0" standalone="no"?>
<!DOCTYPE svg PUBLIC "-//W3C//DTD SVG 20010904//EN"
 "http://www.w3.org/TR/2001/REC-SVG-20010904/DTD/svg10.dtd">
<svg version="1.0" xmlns="http://www.w3.org/2000/svg"
 width="1920.000000pt" height="1080.000000pt" viewBox="0 0 1920.000000 1080.000000"
 preserveAspectRatio="xMidYMid meet">

<g transform="translate(0.000000,1080.000000) scale(0.100000,-0.100000)"
fill="#000000" stroke="none">
<path d="M0 5400 l0 -5400 9600 0 9600 0 0 5400 0 5400 -9600 0 -9600 0 0
-5400z m10070 2867 c387 -73 644 -227 912 -547 215 -257 356 -545 432 -885 71
-317 128 -473 365 -998 140 -310 155 -358 149 -477 -5 -90 -22 -138 -73 -198
-35 -42 -152 -99 -219 -107 l-54 -7 -12 -81 c-29 -198 -124 -430 -233 -570
-16 -21 -28 -39 -26 -41 2 -2 24 -14 49 -26 121 -61 180 -130 180 -211 -1
-118 -100 -188 -340 -237 -56 -11 -152 -16 -380 -17 -292 -2 -309 -4 -410 -29
-232 -58 -356 -70 -710 -71 -283 0 -348 3 -504 23 l-179 23 -76 -20 c-170 -45
-364 -45 -603 0 -263 49 -425 134 -444 234 -17 93 34 164 162 226 l83 40 -71
82 c-38 45 -95 123 -124 174 -53 89 -144 285 -144 311 0 16 -8 15 -93 -8 -99
-28 -224 -36 -283 -20 -71 20 -118 73 -145 161 -42 138 -14 263 120 530 116
230 203 361 413 625 204 256 269 370 357 627 181 533 402 909 670 1145 208
183 466 311 711 356 109 20 398 16 520 -7z m-2472 -5364 c8 -10 25 -36 38 -58
l25 -40 -3 60 -3 60 40 0 40 0 0 -125 0 -125 -42 -3 c-42 -3 -43 -2 -74 52
-17 31 -33 56 -35 56 -3 0 -3 -25 0 -56 l6 -55 -43 3 -42 3 -3 119 c-2 89 1
122 10 128 19 13 71 1 86 -19z m419 -6 c31 -29 37 -41 40 -88 7 -98 -58 -158
-159 -146 -87 11 -118 48 -118 143 0 50 3 59 34 90 32 32 38 34 100 34 61 0
69 -3 103 -33z m261 7 c26 -17 30 -65 7 -84 -14 -12 -13 -15 5 -32 25 -23 26
-59 2 -88 -15 -19 -31 -23 -104 -27 l-86 -6 -6 89 c-7 111 -3 153 15 165 19
14 139 1 167 -17z m297 -7 c42 -42 54 -106 32 -160 -28 -65 -124 -95 -202 -63
-41 17 -62 48 -71 102 -15 97 39 154 144 154 59 0 67 -3 97 -33z m270 4 c43
-24 62 -86 43 -143 -20 -63 -49 -79 -149 -81 l-84 -2 -3 122 c-2 110 -1 122
15 125 37 9 149 -5 178 -21z m150 23 c8 -4 23 -20 31 -36 l16 -30 24 36 c25
36 35 39 86 27 l27 -6 -49 -73 c-44 -63 -50 -79 -50 -122 l0 -50 -40 0 -40 0
0 50 c0 43 -7 60 -47 121 -38 57 -44 72 -32 80 16 10 50 12 74 3z m433 -3 c30
-1 32 -3 32 -36 0 -34 -1 -35 -40 -35 -22 0 -40 -4 -40 -10 0 -5 16 -10 35
-10 33 0 35 -2 35 -35 0 -33 -2 -35 -35 -35 -35 0 -35 0 -35 -46 l0 -45 -42 3
-43 3 -3 122 c-3 135 -5 131 68 127 19 -1 50 -2 68 -3z m140 0 c9 -5 13 -32
13 -78 0 -82 16 -115 46 -97 14 9 19 27 21 91 l3 81 32 6 c47 9 56 -10 53
-111 -3 -66 -8 -90 -23 -111 -24 -33 -88 -49 -140 -36 -57 14 -73 46 -79 151
-4 80 -2 93 13 102 22 13 44 13 61 2z m302 -13 c11 -12 20 -25 20 -30 0 -17
17 -7 28 16 8 17 21 25 54 29 23 3 47 2 51 -2 5 -5 -7 -32 -27 -60 -20 -28
-36 -54 -36 -58 0 -4 18 -33 40 -64 22 -32 40 -60 40 -63 0 -3 -22 -6 -49 -6
-46 0 -51 3 -71 35 l-22 35 -22 -32 c-19 -28 -28 -33 -69 -36 -26 -2 -47 1
-47 5 0 4 18 34 40 66 l41 58 -41 57 c-39 56 -40 57 -18 64 43 12 67 8 88 -14z
m346 14 c7 -4 17 -34 24 -67 l13 -60 12 58 c7 32 15 61 19 64 8 8 71 7 85 -1
5 -4 13 -27 17 -51 9 -60 21 -65 29 -12 4 24 10 48 13 54 10 15 55 23 71 13
16 -10 9 -51 -30 -182 l-21 -68 -42 0 -43 0 -18 67 c-10 37 -20 63 -21 58 -2
-6 -10 -36 -19 -67 l-16 -58 -40 0 c-46 0 -46 0 -84 137 -30 112 -30 111 -2
116 37 7 42 7 53 -1z m398 2 c13 -5 16 -26 16 -131 l0 -124 -42 3 -43 3 -3
114 c-2 75 1 118 9 127 12 15 37 18 63 8z m219 0 c34 -5 37 -8 37 -40 0 -31
-3 -34 -30 -34 l-29 0 -3 -87 -3 -88 -42 -3 -43 -3 0 90 0 91 -30 0 c-27 0
-30 3 -30 33 0 19 2 36 5 39 7 7 126 9 168 2z m125 0 c18 -5 22 -13 22 -45 0
-38 1 -39 34 -39 34 0 35 1 38 43 3 37 6 42 29 45 55 6 65 -30 52 -195 l-5
-63 -39 0 -39 0 0 48 c0 47 0 47 -35 49 l-35 3 0 -50 0 -50 -40 0 -40 0 -1 63
c-2 113 3 182 15 189 13 9 15 9 44 2z m465 0 c34 -5 37 -8 37 -40 0 -31 -3
-34 -30 -34 l-30 0 0 -90 0 -90 -39 0 c-47 0 -51 8 -51 106 l0 74 -30 0 c-27
0 -30 3 -30 33 0 19 3 36 6 39 7 8 118 9 167 2z m135 -3 c9 -5 13 -32 13 -78
0 -82 16 -115 46 -97 14 9 19 27 21 91 l3 81 32 6 c47 9 56 -10 53 -111 -3
-66 -8 -90 -23 -111 -24 -33 -88 -49 -140 -36 -57 14 -73 46 -79 151 -4 80 -2
93 13 102 22 13 44 13 61 2z m302 -13 c11 -12 20 -25 20 -30 0 -17 17 -7 28
16 8 17 21 25 54 29 23 3 47 2 51 -2 5 -5 -7 -32 -27 -60 -20 -28 -36 -54 -36
-58 0 -4 18 -33 40 -64 22 -32 40 -60 40 -63 0 -3 -22 -6 -49 -6 -46 0 -51 3
-71 35 l-22 35 -22 -32 c-19 -28 -28 -33 -69 -36 -26 -2 -47 1 -47 5 0 4 18
34 40 66 l41 58 -41 57 c-39 56 -40 57 -18 64 43 12 67 8 88 -14z"/>
<path d="M9556 8184 c-241 -44 -498 -181 -698 -372 -246 -237 -428 -556 -603
-1062 -99 -285 -153 -379 -390 -680 -76 -96 -179 -236 -228 -310 -86 -131
-212 -373 -257 -495 -45 -123 -34 -270 25 -325 51 -48 218 -34 390 32 164 63
525 246 713 360 35 22 68 38 73 36 21 -8 -313 -211 -556 -338 -66 -35 -129
-71 -139 -81 -19 -17 -19 -19 8 -91 33 -90 109 -243 161 -323 21 -33 87 -108
147 -167 59 -59 104 -109 99 -112 -4 -3 -45 -19 -89 -35 -307 -114 -311 -211
-13 -305 247 -78 561 -90 759 -29 49 16 62 16 180 0 225 -30 342 -37 577 -36
300 2 462 20 687 76 99 24 116 26 413 27 258 1 323 5 389 20 170 38 246 82
246 141 0 51 -39 88 -160 149 -60 31 -111 60 -114 64 -2 4 9 23 25 42 167 197
260 410 288 663 5 42 14 84 21 92 8 10 31 15 65 15 107 0 205 52 245 131 25
48 27 153 4 230 -9 30 -74 182 -144 339 -220 490 -280 656 -355 985 -92 405
-267 713 -566 1000 -144 138 -278 226 -427 279 -98 35 -250 72 -345 85 -108
15 -336 12 -431 -5z m182 -890 c217 -44 417 -214 482 -410 19 -55 22 -82 18
-167 -4 -87 -9 -111 -35 -167 -60 -130 -165 -229 -318 -301 -118 -55 -192 -72
-320 -72 -166 0 -277 34 -422 130 -137 90 -219 212 -245 363 -42 242 132 497
406 597 115 42 304 54 434 27z m1377 -418 c55 -25 121 -91 131 -131 3 -14 4
-51 2 -81 -17 -202 -316 -268 -444 -97 -136 180 95 410 311 309z m-469 -545
c23 -11 96 -71 162 -134 66 -63 146 -134 179 -158 68 -53 77 -82 42 -151 -57
-113 -152 -218 -269 -298 -86 -58 -83 -59 -230 15 -78 39 -205 91 -309 125
-219 73 -418 153 -440 175 -15 15 -14 18 17 44 17 15 94 61 169 102 75 41 198
112 273 158 188 116 242 141 310 141 32 0 72 -8 96 -19z m462 -531 c99 -72
212 -212 267 -331 13 -30 34 -95 46 -144 28 -117 23 -308 -10 -430 -83 -302
-305 -578 -606 -752 -390 -226 -1044 -304 -1658 -197 -279 48 -572 177 -671
295 -64 76 -80 187 -48 341 61 296 302 621 610 826 146 96 357 205 519 268
265 102 333 107 546 38 195 -63 356 -128 455 -181 70 -38 90 -45 122 -40 79
10 257 159 333 280 20 31 41 57 45 57 5 0 27 -13 50 -30z"/>
<path d="M9451 7238 c-182 -25 -328 -117 -420 -263 -56 -89 -60 -109 -26 -145
16 -17 46 -41 66 -56 l39 -26 -20 -26 c-49 -62 -2 -152 80 -152 50 0 86 31 95
84 4 20 10 36 14 36 3 0 85 -11 181 -25 215 -32 464 -43 579 -26 139 21 147
30 132 147 -23 177 -119 304 -294 391 -120 60 -276 83 -426 61z"/>
<path d="M10930 6825 c-67 -31 -123 -103 -100 -130 6 -8 21 -15 32 -17 12 -2
29 -16 38 -33 14 -25 23 -30 56 -30 31 0 41 5 51 25 10 21 24 27 95 40 58 11
84 20 86 31 4 22 -38 80 -76 102 -44 26 -137 32 -182 12z"/>
<path d="M7882 2838 c-14 -14 -16 -57 -3 -76 5 -8 22 -12 41 -10 26 2 35 9 40
28 11 41 -5 70 -38 70 -15 0 -33 -5 -40 -12z"/>
<path d="M8180 2846 c0 -9 7 -16 16 -16 17 0 14 22 -4 28 -7 2 -12 -3 -12 -12z"/>
<path d="M8180 2755 c0 -10 7 -15 18 -13 21 4 19 22 -2 26 -10 2 -16 -3 -16
-13z"/>
<path d="M8441 2836 c-7 -8 -11 -30 -9 -48 3 -29 7 -33 37 -36 20 -2 37 2 42
10 13 19 11 62 -3 76 -16 16 -53 15 -67 -2z"/>
<path d="M8740 2800 c0 -46 2 -50 23 -50 13 0 28 5 35 12 29 29 2 88 -39 88
-16 0 -19 -7 -19 -50z"/>
</g>
</svg>
